# xmcd
#
# Track frame offsets:
#	150
#	13862
#	36227
#	50035
#	71400
#	82165
#	93877
#	118497
#	141260
#	156540
#	196850
#	221015
#	233137
#	257052
#	277165
#	296485
#
# Disc length: 4269 seconds
#
# Revision: 1
# Processed by: cddbd v1.5.2PL0 Copyright (c) Steve Scherf et al.
# Submitted via: audiograbber 1.83.01
#
DISCID=fe10ab10
DTITLE=Guns 'N' Roses - Use Your Illusion
DYEAR=1900
DGENRE=
TTITLE0=Right Next Door To Hell
TTITLE1=Dust 'n' Bones
TTITLE2=Live And Let Die
TTITLE3=Don't Cry (Original)
TTITLE4=Perfect Crime
TTITLE5=You Ain't The First
TTITLE6=Bad Obsession
TTITLE7=Back Off Bitch
TTITLE8=Double Talkin' Live
TTITLE9=November Rain
TTITLE10=The Garden
TTITLE11=Garden Of Eden
TTITLE12=Dan't Dawn Me
TTITLE13=Bad Apples
TTITLE14=Dead Horse
TTITLE15=Coma
EXTD=
EXTT0=
EXTT1=
EXTT2=
EXTT3=
EXTT4=
EXTT5=
EXTT6=
EXTT7=
EXTT8=
EXTT9=
EXTT10=
EXTT11=
EXTT12=
EXTT13=
EXTT14=
EXTT15=
PLAYORDER=
